Coordinates
version=1
nRows=18
nColumns=22
inDegrees=yes

Units are S.I. units (second, meters, Newtons, ...)
If the header above contains a line with 'inDegrees', this indicates whether rotational values are in degrees (yes) or radians (no).

endheader
time	pelvis_tilt	pelvis_list	pelvis_rotation	pelvis_tx	pelvis_ty	pelvis_tz	hip_flexion_r	hip_adduction_r	hip_rotation_r	knee_angle_r	ankle_angle_r	subtalar_angle_r	hip_flexion_l	hip_adduction_l	hip_rotation_l	knee_angle_l	ankle_angle_l	subtalar_angle_l	lumbar_extension	lumbar_bending	lumbar_rotation
      2.15000000	     -2.86670781	     -6.37030254	     22.40547925	      0.62384780	      0.94280770	      1.03791761	     14.73200255	     -3.08267704	     -5.03375812	    -66.41693268	     -4.46873554	      6.10490396	     24.33831338	      1.50655630	     -2.90761442	    -30.69888306	     12.17081748	     -8.20439785	     -1.19950707	      1.69931369	     -3.61777539
      2.16000000	     -2.56861265	     -6.31592893	     23.37998131	      0.63084686	      0.94416277	      1.03062032	     15.75561338	     -3.32903383	     -5.23596430	    -67.08026769	     -3.61053746	      5.37710948	     23.08077913	      1.98008877	     -2.19522096	    -30.04955717	     12.47491073	     -8.32294929	     -1.23536873	      1.80281824	     -4.07850492
      2.17000000	     -2.29566551	     -6.26819052	     24.41880278	      0.63766642	      0.94546387	      1.02325810	     16.75998320	     -3.57322952	     -5.44904572	    -67.51529489	     -2.72193802	      4.89073028	     21.82928682	      2.45664799	     -1.36960814	    -29.35616324	     12.71385947	     -8.37321376	     -1.24008639	      1.90531101	     -4.54784657
      2.18000000	     -1.98573029	     -6.21088055	     25.47358482	      0.64439621	      0.94675722	      1.01590125	     17.66908866	     -3.77844522	     -5.63924335	    -67.71424470	     -1.79745617	      4.07481488	     20.51964726	      2.88493192	     -0.53917542	    -28.63713410	     12.98601898	     -8.51398058	     -1.28449948	      2.01668739	     -5.00413498
      2.19000000	     -1.71659064	     -6.16861502	     26.57261952	      0.65097380	      0.94795494	      1.00850376	     18.57130527	     -3.98280386	     -5.83872142	    -67.69124401	     -0.82876488	      3.46383519	     19.23458260	      3.29292751	      0.35130235	    -27.87504989	     13.18946333	     -8.59820459	     -1.27655425	      2.12689115	     -5.45119042
      2.20000000	     -1.44823464	     -6.12238124	     27.68964954	      0.65739595	      0.94908202	      1.00112805	     19.43122721	     -4.16014503	     -5.99935399	    -67.46536080	      0.17259721	      2.87322879	     17.94024725	      3.66822878	      1.28046644	    -27.09641994	     13.38028279	     -8.68308044	     -1.27821262	      2.23411933	     -5.89674074
      2.21000000	     -1.21432462	     -6.08570520	     28.83461824	      0.66365389	      0.95009161	      0.99374777	     20.28545390	     -4.33631947	     -6.15343315	    -67.04457731	      1.17750891	      2.43652612	     16.67223656	      4.01822938	      2.26006454	    -26.29310100	     13.53364017	     -8.72307964	     -1.24715066	      2.33633406	     -6.32687711
      2.22000000	     -0.95342344	     -6.04819069	     29.97755606	      0.66984806	      0.95104062	      0.98640845	     21.05757541	     -4.46887812	     -6.28585085	    -66.42222692	      2.22817429	      1.83164379	     15.37437712	      4.29910920	      3.20871763	    -25.48464212	     13.70749621	     -8.82783862	     -1.24832718	      2.45103617	     -6.71586924
      2.23000000	     -0.75040182	     -6.02730103	     31.15163849	      0.67584430	      0.95181583	      0.97910577	     21.86570333	     -4.59911059	     -6.39780810	    -65.64581898	      3.23782639	      1.47577270	     14.14682846	      4.56529011	      4.23099438	    -24.67881144	     13.84441617	     -8.84701029	     -1.19984849	      2.55135019	     -7.12539639
      2.24000000	     -0.52237004	     -6.01261129	     32.33492951	      0.68176757	      0.95253332	      0.97185022	     22.59653623	     -4.68070751	     -6.50060345	    -64.67816745	      4.21663805	      1.03942272	     12.90486179	      4.76368494	      5.25897351	    -23.87976354	     13.98632369	     -8.89564335	     -1.18051393	      2.66942234	     -7.49322622
      2.25000000	     -0.27825939	     -6.01401341	     33.51904154	      0.68762771	      0.95315472	      0.96467691	     23.28005375	     -4.70675730	     -6.59666439	    -63.55351489	      5.15487555	      0.47685812	     11.66876811	      4.88423247	      6.26363166	    -23.09037622	     14.13137739	     -8.99017900	     -1.17693878	      2.80749662	     -7.81793662
      2.26000000	     -0.07870184	     -6.04015798	     34.73904517	      0.69331949	      0.95360702	      0.95758362	     23.99429844	     -4.71135195	     -6.67425040	    -62.30689223	      5.98215492	      0.12605792	     10.51672871	      4.97790957	      7.35135050	    -22.33732323	     14.26430578	     -9.00992314	     -1.13103995	      2.93547548	     -8.18274644
      2.27000000	      0.09751264	     -6.08363465	     35.98276399	      0.69890258	      0.95389795	      0.95057714	     24.70643390	     -4.69528522	     -6.74625626	    -60.94558014	      6.80550701	     -0.14968767	      9.43792653	      5.02573926	      8.41764116	    -21.63810586	     14.40907733	     -9.01088613	     -1.06365534	      3.05489069	     -8.54792927
      2.28000000	      0.36694481	     -6.13923444	     37.22040912	      0.70447587	      0.95422901	      0.94368623	     25.30634216	     -4.54804547	     -6.76556378	    -59.44774405	      7.38855473	     -0.56072845	      8.28724312	      4.95701435	      9.52568278	    -20.93339096	     14.56545585	     -9.07117930	     -1.08284288	      3.23574090	     -8.87436814
      2.29000000	      0.54912623	     -6.21373906	     38.48665762	      0.70989494	      0.95430885	      0.93687812	     25.98707139	     -4.43402075	     -6.76465499	    -57.90713543	      7.96491576	     -0.74548140	      7.28384707	      4.89394687	     10.63797365	    -20.30480415	     14.70983820	     -9.06562541	     -1.01921561	      3.36759680	     -9.23828916
      2.30000000	      0.77928102	     -6.29391807	     39.74554625	      0.71528260	      0.95435651	      0.93018521	     26.60873022	     -4.24239216	     -6.70999839	    -56.28891710	      8.37138173	     -0.89255248	      6.26803966	      4.75050696	     11.75937395	    -19.70137761	     14.87295619	     -9.06931801	     -1.00521670	      3.52648145	     -9.56653442
      2.31000000	      1.01579730	     -6.37070712	     40.99347485	      0.72062777	      0.95431316	      0.92357432	     27.21097945	     -4.02115864	     -6.60046443	    -54.62930122	      8.65731415	     -0.96187352	      5.27506821	      4.56574722	     12.87268256	    -19.13049229	     15.04247439	     -9.07259790	     -1.00550969	      3.68141372	     -9.86333937
      2.32000000	      1.25179664	     -6.44121707	     42.22446777	      0.72593704	      0.95417332	      0.91703015	     27.80003006	     -3.78286231	     -6.43359507	    -52.94462825	      8.81606976	     -0.92898531	      4.30895783	      4.34899132	     13.96795635	    -18.59274207	     15.21640729	     -9.07131363	     -1.01532403	      3.82875472	    -10.12930283
